<?xml version="1.0" encoding="UTF-8" standalone="no"?>
<!-- Created with Inkscape (http://www.inkscape.org/) -->
<svg id="svg2985" xmlns:rdf="http://www.w3.org/1999/02/22-rdf-syntax-ns#" xmlns="http://www.w3.org/2000/svg" height="24" width="24" version="1.1" xmlns:cc="http://creativecommons.org/ns#" xmlns:dc="http://purl.org/dc/elements/1.1/">
 <metadata id="metadata2990">
  <rdf:RDF>
   <cc:Work rdf:about="">
    <dc:format>image/svg+xml</dc:format>
    <dc:type rdf:resource="http://purl.org/dc/dcmitype/StillImage"/>
    <dc:title/>
   </cc:Work>
  </rdf:RDF>
 </metadata>
 <path id="path3883" style="stroke:#000;fill:none" d="m17.997 8.4808s0.14205 2.2656 0.15044 3.4c0.0057 0.7747-0.02847 1.9363-0.06409 2.9042-0.03563 0.9679-0.03013 1.7175-0.64939 1.7422-3.3733 0.13419-11.504 0.02125-11.504 0.02125-4e-7 0-0.71413-0.07114-0.79612-1.2352-0.08177-1.1636-0.20868-3.4212 0.11339-4.2823 0.21522-0.57545 0.60911-1.2663 1.2111-1.3901 0.40664-0.08364 0.87958 0.20332 1.1223 0.54009 0.33396 0.46325 0.21658 1.7 0.21658 1.7v-3.7499c0-0.16674 0.00422-0.31702 0.048595-0.50022 0.09435-0.38947 0.44387-0.87626 0.80138-1.0305 0.26018-0.11228 0.5774-0.11824 0.93678-0.08415 0.56058 0.053125 0.83853 0.59066 0.83853 0.59066l-0.07522 3.4 0.07222-3.6898s0.19658-0.72562 0.66947-0.88612c0.42279-0.14349 0.9429-0.17003 1.3389 0.036106 0.40835 0.21253 0.46938 0.81389 0.46938 0.81389v3.3999-3.0029c0.26245-0.24581 0.43295-0.40754 0.70731-0.49326 0.37497-0.11716 0.79818-0.16479 1.1785 0.0039 0.64164 0.28459 0.66415 0.94222 0.66415 0.94222v3.227-2.377s0.35794-0.64852 0.76536-0.81372c0.45016-0.18255 0.6634-0.15719 0.98302-0.072552 0.35786 0.094775 0.78238 0.4512 0.80164 0.8863z"/>
</svg>
