<?xml version="1.0" encoding="UTF-8" standalone="no"?>
<!-- Created with Inkscape (http://www.inkscape.org/) -->
<svg id="svg4494" xmlns:rdf="http://www.w3.org/1999/02/22-rdf-syntax-ns#" xmlns="http://www.w3.org/2000/svg" height="16" width="16" version="1.1" xmlns:cc="http://creativecommons.org/ns#" xmlns:xlink="http://www.w3.org/1999/xlink" xmlns:dc="http://purl.org/dc/elements/1.1/">
 <metadata id="metadata4499">
  <rdf:RDF>
   <cc:Work rdf:about="">
    <dc:format>image/svg+xml</dc:format>
    <dc:type rdf:resource="http://purl.org/dc/dcmitype/StillImage"/>
    <dc:title/>
   </cc:Work>
  </rdf:RDF>
 </metadata>
 <g id="layer1">
  <path id="path4504" style="stroke-linejoin:round;stroke:#000;stroke-linecap:round;stroke-width:.6;fill:none" d="m7 7v-4h-2l3-2"/>
  <use id="use5070" xlink:href="#path4504" transform="matrix(-1,0,0,1,16,0)" height="16" width="16" y="0" x="0"/>
  <use id="use5072" xlink:href="#path4504" transform="matrix(0,-1,1,0,0,16)" height="16" width="16" y="0" x="0"/>
  <use id="use5074" xlink:href="#path4504" transform="matrix(0,1,1,0,0,0)" height="16" width="16" y="0" x="0"/>
  <use id="use5076" xlink:href="#use5072" transform="matrix(-1,0,0,1,16,0)" height="16" width="16" y="0" x="0"/>
  <use id="use5078" xlink:href="#use5074" transform="matrix(-1,0,0,1,16,0)" height="16" width="16" y="0" x="0"/>
  <use id="use5080" xlink:href="#path4504" transform="matrix(1,0,0,-1,0,16)" height="16" width="16" y="0" x="0"/>
  <use id="use5082" xlink:href="#use5070" transform="matrix(1,0,0,-1,0,16)" height="16" width="16" y="0" x="0"/>
 </g>
</svg>
