<?xml version="1.0" encoding="UTF-8" standalone="no"?>
<!-- Created with Inkscape (http://www.inkscape.org/) -->
<svg id="svg2988" xmlns:rdf="http://www.w3.org/1999/02/22-rdf-syntax-ns#" xmlns="http://www.w3.org/2000/svg" height="16" width="16" version="1.1" xmlns:cc="http://creativecommons.org/ns#" xmlns:xlink="http://www.w3.org/1999/xlink" xmlns:dc="http://purl.org/dc/elements/1.1/">
 <metadata id="metadata2993">
  <rdf:RDF>
   <cc:Work rdf:about="">
    <dc:format>image/svg+xml</dc:format>
    <dc:type rdf:resource="http://purl.org/dc/dcmitype/StillImage"/>
    <dc:title/>
   </cc:Work>
  </rdf:RDF>
 </metadata>
 <g id="layer1" transform="matrix(.93576 0 0 .93576 .61815 .45606)">
  <path id="path3006" style="stroke-linejoin:round;stroke:#000;stroke-linecap:round;stroke-width:.64119;fill:none" d="m14.359 14.436s-0.16498 0.17776-0.29832 0.25229c-0.21498 0.12018-0.52733 0.12534-0.70755 0.03368-0.136-0.069-0.229-0.141-0.229-0.141-1.291-1.262-2.625-2.589-3.9157-3.851l0.8207-0.8158m-3.0582-2.8216-0.7208 0.6901-0.8716-0.8177s-0.65884 0.25178-1.3971 0.22192c-1.3258-0.0536-2.3714-1.0529-2.5822-2.2408-0.1324-0.7459 0.1536-1.3972 0.1536-1.3972l1.4142 1.4142s0.48355 0.37698 0.87405 0.29209c0.3926-0.0853 0.8356-0.5786 0.8356-0.5786"/>
  <use id="use3008" xlink:href="#path3006" transform="matrix(0,1,1,0,0,0)" height="16" width="16" y="0" x="0"/>
 </g>
 <path id="path6097" style="stroke:#000;stroke-width:.6;fill:none" d="m2 14 1.0806 1.0605s0.53564 0.0782 0.79683 0.02902c0.27408-0.05161 0.76781-0.33245 0.76781-0.33245l2.4644-2.406 0.5515-1.116-0.4644-0.536 6.0873-6.1451 0.913-0.0871 0.884-1.4063-1.081-1.0605"/>
 <use id="use6099" xlink:href="#path6097" transform="matrix(0,-1,-1,0,17,17)" height="16" width="16" y="0" x="0"/>
</svg>
