<?xml version="1.0" encoding="UTF-8" standalone="no"?>
<!-- Created with Inkscape (http://www.inkscape.org/) -->

<svg
   width="128.46588mm"
   height="26.458334mm"
   viewBox="0 0 128.46588 26.458334"
   version="1.1"
   id="svg320"
   inkscape:version="1.2 (dc2aedaf03, 2022-05-15)"
   sodipodi:docname="ply_header.svg"
   xmlns:inkscape="http://www.inkscape.org/namespaces/inkscape"
   xmlns:sodipodi="http://sodipodi.sourceforge.net/DTD/sodipodi-0.dtd"
   xmlns="http://www.w3.org/2000/svg"
   xmlns:svg="http://www.w3.org/2000/svg">
  <sodipodi:namedview
     id="namedview322"
     pagecolor="#ffffff"
     bordercolor="#666666"
     borderopacity="1.0"
     inkscape:showpageshadow="2"
     inkscape:pageopacity="0.0"
     inkscape:pagecheckerboard="0"
     inkscape:deskcolor="#d1d1d1"
     inkscape:document-units="mm"
     showgrid="false"
     inkscape:zoom="1.5625561"
     inkscape:cx="246.71114"
     inkscape:cy="98.55646"
     inkscape:window-width="1920"
     inkscape:window-height="1057"
     inkscape:window-x="-8"
     inkscape:window-y="-8"
     inkscape:window-maximized="1"
     inkscape:current-layer="layer1" />
  <defs
     id="defs317" />
  <g
     inkscape:label="Layer 1"
     inkscape:groupmode="layer"
     id="layer1"
     transform="translate(-35.808161,-72.092851)">
    <g
       id="g6707"
       inkscape:export-filename="Header_graphic.png"
       inkscape:export-xdpi="96"
       inkscape:export-ydpi="96"
       transform="matrix(0.49933002,0,0,0.49249037,16.636036,53.234495)"
       style="stroke-width:2.01655">
      <rect
         style="fill:#3b80ae;fill-opacity:1;stroke:#3b80ae;stroke-width:1.60064;stroke-dasharray:none;stroke-opacity:1;stop-color:#000000"
         id="rect1003"
         width="52.122917"
         height="52.122917"
         x="39.196018"
         y="39.092148"
         ry="4.4779134" />
      <g
         id="g5787"
         style="stroke-width:2.01655">
        <text
           xml:space="preserve"
           style="font-style:normal;font-variant:normal;font-weight:normal;font-stretch:normal;font-size:9.67861px;line-height:1.25;font-family:Arial;-inkscape-font-specification:'Arial, Normal';font-variant-ligatures:normal;font-variant-caps:normal;font-variant-numeric:normal;font-variant-east-asian:normal;letter-spacing:0px;fill:#808080;stroke-width:0.533544"
           x="151.3437"
           y="82.960503"
           id="text3636"><tspan
             sodipodi:role="line"
             id="tspan4431"
             x="151.3437"
             y="82.960503"
             style="font-style:normal;font-variant:normal;font-weight:normal;font-stretch:normal;font-size:9.67861px;font-family:Arial;-inkscape-font-specification:'Arial, Normal';font-variant-ligatures:normal;font-variant-caps:normal;font-variant-numeric:normal;font-variant-east-asian:normal;fill:#808080;stroke-width:0.533544">graphical boot animation &amp; logger</tspan></text>
        <path
           d="M 104.73738,78.876651 V 52.550105 h 2.93912 v 2.473154 q 1.03943,-1.451634 2.34769,-2.16849 1.30827,-0.734778 3.1721,-0.734778 2.4373,0 4.30114,1.254499 1.86382,1.254498 2.81366,3.548438 0.94983,2.276019 0.94983,5.000072 0,2.92119 -1.05737,5.268894 -1.03943,2.329783 -3.04663,3.584281 -1.98929,1.236577 -4.19361,1.236577 -1.61293,0 -2.90327,-0.681013 -1.27242,-0.681014 -2.0968,-1.720455 v 9.265367 z M 107.65857,62.1739 q 0,3.673888 1.48748,5.430186 1.48748,1.756298 3.6022,1.756298 2.15057,0 3.67389,-1.810063 1.54124,-1.827983 1.54124,-5.645242 0,-3.638045 -1.5054,-5.448108 -1.48748,-1.810061 -3.56636,-1.810061 -2.06096,0 -3.65597,1.935511 -1.57708,1.917591 -1.57708,5.591479 z"
           id="path5730"
           style="font-size:31.1389px;line-height:1.25;font-family:Arial;-inkscape-font-specification:'Arial, Normal';letter-spacing:0px;fill:#3b80ae;stroke-width:0.533541" />
        <path
           d="M 125.07818,71.582638 V 45.309857 h 3.22585 v 26.272781 z"
           id="path5732"
           style="font-size:31.1389px;line-height:1.25;font-family:Arial;-inkscape-font-specification:'Arial, Normal';letter-spacing:0px;fill:#3b80ae;stroke-width:0.533541" />
        <path
           d="m 133.16073,78.912494 -0.35843,-3.028719 q 1.05736,0.286743 1.84591,0.286743 1.07528,0 1.72046,-0.358428 0.64516,-0.358428 1.05735,-1.003598 0.30467,-0.483879 0.98568,-2.401469 0.0896,-0.268821 0.28675,-0.788542 l -7.22233,-19.068376 h 3.47675 l 3.96063,11.021665 q 0.77063,2.096805 1.37995,4.408665 0.55556,-2.222254 1.32619,-4.33698 l 4.06816,-11.09335 h 3.22585 l -7.24025,19.355119 q -1.16489,3.136246 -1.81007,4.319058 -0.86023,1.595006 -1.97135,2.329783 -1.11113,0.7527 -2.65237,0.7527 -0.93191,0 -2.07888,-0.394271 z"
           id="path5734"
           style="font-size:31.1389px;line-height:1.25;font-family:Arial;-inkscape-font-specification:'Arial, Normal';letter-spacing:0px;fill:#3b80ae;stroke-width:0.533541" />
        <path
           d="M 151.65562,71.582638 V 52.550105 h 2.88535 v 2.67029 q 0.89607,-1.39787 2.38355,-2.240176 1.48747,-0.860228 3.38714,-0.860228 2.11473,0 3.45883,0.87815 1.36203,0.878148 1.9176,2.455232 2.25809,-3.333382 5.87822,-3.333382 2.83157,0 4.3549,1.577084 1.52332,1.559162 1.52332,4.820858 v 13.064705 h -3.20794 v -11.98942 q 0,-1.935512 -0.32258,-2.777818 -0.30467,-0.860228 -1.12906,-1.379949 -0.82437,-0.51972 -1.93551,-0.51972 -2.00719,0 -3.33337,1.344105 -1.32619,1.326184 -1.32619,4.265295 v 11.057507 h -3.22585 V 59.216869 q 0,-2.150569 -0.78854,-3.225854 -0.78854,-1.075284 -2.58069,-1.075284 -1.36202,0 -2.52692,0.716856 -1.14697,0.716856 -1.66668,2.096805 -0.51972,1.379947 -0.51972,3.978552 v 9.874694 z"
           id="path5736"
           style="font-size:31.1389px;line-height:1.25;font-family:Arial;-inkscape-font-specification:'Arial, Normal';letter-spacing:0px;fill:#3b80ae;stroke-width:0.533541" />
        <path
           d="m 181.02881,62.066372 q 0,-5.286815 2.93911,-7.831655 2.45523,-2.114726 5.98575,-2.114726 3.92478,0 6.41586,2.580683 2.49107,2.562761 2.49107,7.096877 0,3.673888 -1.11112,5.788613 -1.0932,2.096805 -3.20793,3.261697 -2.0968,1.164891 -4.58788,1.164891 -3.99648,0 -6.46963,-2.562761 -2.45523,-2.562762 -2.45523,-7.383619 z m 3.31546,0 q 0,3.655966 1.595,5.483949 1.595,1.810063 4.0144,1.810063 2.40147,0 3.99647,-1.827983 1.595,-1.827983 1.595,-5.573558 0,-3.530517 -1.61291,-5.340579 -1.59502,-1.827983 -3.97856,-1.827983 -2.4194,0 -4.0144,1.810062 -1.595,1.810062 -1.595,5.466029 z"
           id="path5738"
           style="font-size:31.1389px;line-height:1.25;font-family:Arial;-inkscape-font-specification:'Arial, Normal';letter-spacing:0px;fill:#3b80ae;stroke-width:0.533541" />
        <path
           d="m 215.11532,71.582638 v -2.795739 q -2.22225,3.225853 -6.03952,3.225853 -1.68461,0 -3.15416,-0.64517 -1.45164,-0.645172 -2.16849,-1.612927 -0.69894,-0.985678 -0.98568,-2.401469 -0.19714,-0.949834 -0.19714,-3.010796 V 52.550105 h 3.22586 v 10.555708 q 0,2.526918 0.19713,3.405067 0.30467,1.27242 1.29035,2.007198 0.98568,0.716856 2.4373,0.716856 1.45164,0 2.72405,-0.734778 1.27243,-0.752699 1.79215,-2.025118 0.53764,-1.290342 0.53764,-3.727653 v -10.19728 h 3.22585 v 19.032533 z"
           id="path5740"
           style="font-size:31.1389px;line-height:1.25;font-family:Arial;-inkscape-font-specification:'Arial, Normal';letter-spacing:0px;fill:#3b80ae;stroke-width:0.533541" />
        <path
           d="m 230.09762,68.697292 0.46594,2.849503 q -1.36202,0.286743 -2.4373,0.286743 -1.7563,0 -2.72405,-0.555564 -0.96776,-0.555564 -1.36203,-1.451634 -0.39427,-0.913992 -0.39427,-3.817259 V 55.059102 h -2.36563 v -2.508997 h 2.36563 v -4.713329 l 3.20792,-1.935513 v 6.648842 h 3.24379 v 2.508997 h -3.24379 v 11.129193 q 0,1.379948 0.1613,1.774219 0.17921,0.394271 0.55556,0.62725 0.39427,0.232978 1.11113,0.232978 0.53764,0 1.4158,-0.12545 z"
           id="path5742"
           style="font-size:31.1389px;line-height:1.25;font-family:Arial;-inkscape-font-specification:'Arial, Normal';letter-spacing:0px;fill:#3b80ae;stroke-width:0.533541" />
        <path
           d="M 233.25179,71.582638 V 45.309857 h 3.22585 v 9.426659 q 2.2581,-2.616525 5.699,-2.616525 2.11473,0 3.67389,0.842307 1.55917,0.824385 2.22226,2.293939 0.68101,1.469555 0.68101,4.265295 v 12.061106 h -3.22585 V 59.521532 q 0,-2.419389 -1.05737,-3.512595 -1.03944,-1.111128 -2.95703,-1.111128 -1.43371,0 -2.70613,0.752699 -1.2545,0.734778 -1.79214,2.007198 -0.53764,1.27242 -0.53764,3.512596 v 10.412336 z"
           id="path5744"
           style="font-size:31.1389px;line-height:1.25;font-family:Arial;-inkscape-font-specification:'Arial, Normal';letter-spacing:0px;fill:#3b80ae;stroke-width:0.533541" />
      </g>
      <rect
         style="fill:#3b80ae;fill-opacity:1;stroke:#3b80ae;stroke-width:1.60064;stroke-dasharray:none;stroke-opacity:1;stop-color:#000000"
         id="rect5791"
         width="52.122917"
         height="52.122917"
         x="39.196018"
         y="39.092148"
         ry="4.4779134" />
      <g
         id="g5813"
         style="stroke-width:2.01655">
        <text
           xml:space="preserve"
           style="font-style:normal;font-variant:normal;font-weight:normal;font-stretch:normal;font-size:9.67861px;line-height:1.25;font-family:Arial;-inkscape-font-specification:'Arial, Normal';font-variant-ligatures:normal;font-variant-caps:normal;font-variant-numeric:normal;font-variant-east-asian:normal;letter-spacing:0px;fill:#808080;stroke-width:0.533544"
           x="151.3437"
           y="82.960503"
           id="text5795"><tspan
             sodipodi:role="line"
             id="tspan5793"
             x="151.3437"
             y="82.960503"
             style="font-style:normal;font-variant:normal;font-weight:normal;font-stretch:normal;font-size:9.67861px;font-family:Arial;-inkscape-font-specification:'Arial, Normal';font-variant-ligatures:normal;font-variant-caps:normal;font-variant-numeric:normal;font-variant-east-asian:normal;fill:#808080;stroke-width:0.533544">graphical boot animation &amp; logger</tspan></text>
        <path
           d="M 104.73738,78.876651 V 52.550105 h 2.93912 v 2.473154 q 1.03943,-1.451634 2.34769,-2.16849 1.30827,-0.734778 3.1721,-0.734778 2.4373,0 4.30114,1.254499 1.86382,1.254498 2.81366,3.548438 0.94983,2.276019 0.94983,5.000072 0,2.92119 -1.05737,5.268894 -1.03943,2.329783 -3.04663,3.584281 -1.98929,1.236577 -4.19361,1.236577 -1.61293,0 -2.90327,-0.681013 -1.27242,-0.681014 -2.0968,-1.720455 v 9.265367 z M 107.65857,62.1739 q 0,3.673888 1.48748,5.430186 1.48748,1.756298 3.6022,1.756298 2.15057,0 3.67389,-1.810063 1.54124,-1.827983 1.54124,-5.645242 0,-3.638045 -1.5054,-5.448108 -1.48748,-1.810061 -3.56636,-1.810061 -2.06096,0 -3.65597,1.935511 -1.57708,1.917591 -1.57708,5.591479 z"
           id="path5797"
           style="font-size:31.1389px;line-height:1.25;font-family:Arial;-inkscape-font-specification:'Arial, Normal';letter-spacing:0px;fill:#3b80ae;stroke-width:0.533541" />
        <path
           d="M 125.07818,71.582638 V 45.309857 h 3.22585 v 26.272781 z"
           id="path5799"
           style="font-size:31.1389px;line-height:1.25;font-family:Arial;-inkscape-font-specification:'Arial, Normal';letter-spacing:0px;fill:#3b80ae;stroke-width:0.533541" />
        <path
           d="m 133.16073,78.912494 -0.35843,-3.028719 q 1.05736,0.286743 1.84591,0.286743 1.07528,0 1.72046,-0.358428 0.64516,-0.358428 1.05735,-1.003598 0.30467,-0.483879 0.98568,-2.401469 0.0896,-0.268821 0.28675,-0.788542 l -7.22233,-19.068376 h 3.47675 l 3.96063,11.021665 q 0.77063,2.096805 1.37995,4.408665 0.55556,-2.222254 1.32619,-4.33698 l 4.06816,-11.09335 h 3.22585 l -7.24025,19.355119 q -1.16489,3.136246 -1.81007,4.319058 -0.86023,1.595006 -1.97135,2.329783 -1.11113,0.7527 -2.65237,0.7527 -0.93191,0 -2.07888,-0.394271 z"
           id="path5801"
           style="font-size:31.1389px;line-height:1.25;font-family:Arial;-inkscape-font-specification:'Arial, Normal';letter-spacing:0px;fill:#3b80ae;stroke-width:0.533541" />
        <path
           d="M 151.65562,71.582638 V 52.550105 h 2.88535 v 2.67029 q 0.89607,-1.39787 2.38355,-2.240176 1.48747,-0.860228 3.38714,-0.860228 2.11473,0 3.45883,0.87815 1.36203,0.878148 1.9176,2.455232 2.25809,-3.333382 5.87822,-3.333382 2.83157,0 4.3549,1.577084 1.52332,1.559162 1.52332,4.820858 v 13.064705 h -3.20794 v -11.98942 q 0,-1.935512 -0.32258,-2.777818 -0.30467,-0.860228 -1.12906,-1.379949 -0.82437,-0.51972 -1.93551,-0.51972 -2.00719,0 -3.33337,1.344105 -1.32619,1.326184 -1.32619,4.265295 v 11.057507 h -3.22585 V 59.216869 q 0,-2.150569 -0.78854,-3.225854 -0.78854,-1.075284 -2.58069,-1.075284 -1.36202,0 -2.52692,0.716856 -1.14697,0.716856 -1.66668,2.096805 -0.51972,1.379947 -0.51972,3.978552 v 9.874694 z"
           id="path5803"
           style="font-size:31.1389px;line-height:1.25;font-family:Arial;-inkscape-font-specification:'Arial, Normal';letter-spacing:0px;fill:#3b80ae;stroke-width:0.533541" />
        <path
           d="m 181.02881,62.066372 q 0,-5.286815 2.93911,-7.831655 2.45523,-2.114726 5.98575,-2.114726 3.92478,0 6.41586,2.580683 2.49107,2.562761 2.49107,7.096877 0,3.673888 -1.11112,5.788613 -1.0932,2.096805 -3.20793,3.261697 -2.0968,1.164891 -4.58788,1.164891 -3.99648,0 -6.46963,-2.562761 -2.45523,-2.562762 -2.45523,-7.383619 z m 3.31546,0 q 0,3.655966 1.595,5.483949 1.595,1.810063 4.0144,1.810063 2.40147,0 3.99647,-1.827983 1.595,-1.827983 1.595,-5.573558 0,-3.530517 -1.61291,-5.340579 -1.59502,-1.827983 -3.97856,-1.827983 -2.4194,0 -4.0144,1.810062 -1.595,1.810062 -1.595,5.466029 z"
           id="path5805"
           style="font-size:31.1389px;line-height:1.25;font-family:Arial;-inkscape-font-specification:'Arial, Normal';letter-spacing:0px;fill:#3b80ae;stroke-width:0.533541" />
        <path
           d="m 215.11532,71.582638 v -2.795739 q -2.22225,3.225853 -6.03952,3.225853 -1.68461,0 -3.15416,-0.64517 -1.45164,-0.645172 -2.16849,-1.612927 -0.69894,-0.985678 -0.98568,-2.401469 -0.19714,-0.949834 -0.19714,-3.010796 V 52.550105 h 3.22586 v 10.555708 q 0,2.526918 0.19713,3.405067 0.30467,1.27242 1.29035,2.007198 0.98568,0.716856 2.4373,0.716856 1.45164,0 2.72405,-0.734778 1.27243,-0.752699 1.79215,-2.025118 0.53764,-1.290342 0.53764,-3.727653 v -10.19728 h 3.22585 v 19.032533 z"
           id="path5807"
           style="font-size:31.1389px;line-height:1.25;font-family:Arial;-inkscape-font-specification:'Arial, Normal';letter-spacing:0px;fill:#3b80ae;stroke-width:0.533541" />
        <path
           d="m 230.09762,68.697292 0.46594,2.849503 q -1.36202,0.286743 -2.4373,0.286743 -1.7563,0 -2.72405,-0.555564 -0.96776,-0.555564 -1.36203,-1.451634 -0.39427,-0.913992 -0.39427,-3.817259 V 55.059102 h -2.36563 v -2.508997 h 2.36563 v -4.713329 l 3.20792,-1.935513 v 6.648842 h 3.24379 v 2.508997 h -3.24379 v 11.129193 q 0,1.379948 0.1613,1.774219 0.17921,0.394271 0.55556,0.62725 0.39427,0.232978 1.11113,0.232978 0.53764,0 1.4158,-0.12545 z"
           id="path5809"
           style="font-size:31.1389px;line-height:1.25;font-family:Arial;-inkscape-font-specification:'Arial, Normal';letter-spacing:0px;fill:#3b80ae;stroke-width:0.533541" />
        <path
           d="M 233.25179,71.582638 V 45.309857 h 3.22585 v 9.426659 q 2.2581,-2.616525 5.699,-2.616525 2.11473,0 3.67389,0.842307 1.55917,0.824385 2.22226,2.293939 0.68101,1.469555 0.68101,4.265295 v 12.061106 h -3.22585 V 59.521532 q 0,-2.419389 -1.05737,-3.512595 -1.03944,-1.111128 -2.95703,-1.111128 -1.43371,0 -2.70613,0.752699 -1.2545,0.734778 -1.79214,2.007198 -0.53764,1.27242 -0.53764,3.512596 v 10.412336 z"
           id="path5811"
           style="font-size:31.1389px;line-height:1.25;font-family:Arial;-inkscape-font-specification:'Arial, Normal';letter-spacing:0px;fill:#3b80ae;stroke-width:0.533541" />
      </g>
      <text
         xml:space="preserve"
         style="font-style:normal;font-variant:normal;font-weight:900;font-stretch:normal;font-size:54.5503px;line-height:1.25;font-family:Arial;-inkscape-font-specification:'Arial, Heavy';font-variant-ligatures:normal;font-variant-caps:normal;font-variant-numeric:normal;font-variant-east-asian:normal;letter-spacing:0px;fill:#ffffff;stroke-width:0.533542"
         x="46.359314"
         y="74.236443"
         id="text6674"><tspan
           sodipodi:role="line"
           id="tspan6676"
           x="46.359314"
           y="74.236443"
           style="fill:#ffffff;stroke-width:0.533542">p</tspan><tspan
           sodipodi:role="line"
           id="tspan6678"
           x="46.359314"
           y="142.42432"
           style="fill:#ffffff;stroke-width:0.533542" /></text>
    </g>
  </g>
</svg>
