<?xml version="1.0" encoding="UTF-8" standalone="no"?>
<svg
   xmlns:dc="http://purl.org/dc/elements/1.1/"
   xmlns:cc="http://creativecommons.org/ns#"
   xmlns:rdf="http://www.w3.org/1999/02/22-rdf-syntax-ns#"
   xmlns:svg="http://www.w3.org/2000/svg"
   xmlns="http://www.w3.org/2000/svg"
   xmlns:sodipodi="http://sodipodi.sourceforge.net/DTD/sodipodi-0.dtd"
   xmlns:inkscape="http://www.inkscape.org/namespaces/inkscape"
   id="full-alpha"
   height="135"
   width="388"
   version="1.0"
   inkscape:version="0.48.4 r9939"
   sodipodi:docname="Full Keyboard-Alpha.svg"
   style="enable-background:new"><sodipodi:namedview
   pagecolor="#ffffff"
   bordercolor="#666666"
   borderopacity="1"
   objecttolerance="10"
   gridtolerance="10"
   guidetolerance="10"
   inkscape:pageopacity="0"
   inkscape:pageshadow="2"
   inkscape:window-width="1920"
   inkscape:window-height="1176"
   id="namedview3396"
   showgrid="false"
   inkscape:snap-bbox="true"
   inkscape:bbox-nodes="true"
   inkscape:zoom="6.9634874"
   inkscape:cx="322.92727"
   inkscape:cy="84.114207"
   inkscape:window-x="0"
   inkscape:window-y="24"
   inkscape:window-maximized="1"
   inkscape:current-layer="full-alpha"
   inkscape:object-paths="false"
   inkscape:bbox-paths="false"
   inkscape:snap-global="true"
   inkscape:snap-nodes="true"
   inkscape:snap-bbox-edge-midpoints="false"
   inkscape:object-nodes="true"
   inkscape:snap-smooth-nodes="true"
   inkscape:snap-bbox-midpoints="false"
   showguides="true"
   inkscape:guide-bbox="true" />
<defs
   id="defs4958">
  <filter
     id="filter3145"
     color-interpolation-filters="sRGB">
    <feBlend
       id="feBlend3147"
       in2="BackgroundImage"
       mode="darken" />
  </filter>
</defs>
<metadata
   id="metadata112">
  <rdf:RDF>
    <cc:Work
       rdf:about="">
      <dc:format>image/svg+xml</dc:format>
      <dc:type
         rdf:resource="http://purl.org/dc/dcmitype/StillImage" />
    </cc:Work>
  </rdf:RDF>
</metadata>
<rect
   id="wordlist"
   height="15.965445"
   width="366.96545"
   y="0.51727772"
   x="0.51727772"
   style="fill:#151530;stroke:#7f7f7f;stroke-width:1.03455544" />
<rect
   id="inputline"
   style="fill:#e5d8b2;stroke:#000000;stroke-width:1;fill-opacity:1;opacity:0.5"
   height="18"
   width="322"
   y="19.5"
   x="19.5" />
<rect
   id="RALT"
   height="18"
   width="23"
   y="116.5"
   x="190.5"
   style="fill:#e5d8b2;stroke:#000000" />
<rect
   id="AB01"
   height="18"
   width="18"
   y="97.5"
   x="45.5"
   style="fill:#e5d8b2;stroke:#000000" />
<rect
   id="AE02"
   height="18"
   width="18"
   y="40.5"
   x="38.5"
   style="fill:#e5d8b2;stroke:#000000" />
<rect
   id="AE03"
   height="18"
   width="18"
   y="40.5"
   x="57.5"
   style="fill:#e5d8b2;stroke:#000000" />
<rect
   id="AD09"
   height="18"
   width="18"
   y="59.5"
   x="181.5"
   style="fill:#e5d8b2;stroke:#000000" />
<rect
   id="AE01"
   height="18"
   width="18"
   y="40.5"
   x="19.5"
   style="fill:#e5d8b2;stroke:#000000" />
<rect
   id="AE06"
   height="18"
   width="18"
   y="40.5"
   x="114.5"
   style="fill:#e5d8b2;stroke:#000000" />
<rect
   id="AE07"
   height="18"
   width="18"
   y="40.5"
   x="133.5"
   style="fill:#e5d8b2;stroke:#000000" />
<rect
   id="AE04"
   height="18"
   width="18"
   y="40.5"
   x="76.5"
   style="fill:#e5d8b2;stroke:#000000" />
<rect
   id="AE05"
   height="18"
   width="18"
   y="40.5"
   x="95.5"
   style="fill:#e5d8b2;stroke:#000000" />
<rect
   id="AD03"
   height="18"
   width="18"
   y="59.5"
   x="67.5"
   style="fill:#e5d8b2;stroke:#000000" />
<rect
   id="AD02"
   height="18"
   width="18"
   y="59.5"
   x="48.5"
   style="fill:#e5d8b2;stroke:#000000" />
<rect
   id="AD01"
   height="18"
   width="18"
   y="59.5"
   x="29.5"
   style="fill:#e5d8b2;stroke:#000000" />
<rect
   id="AE09"
   height="18"
   width="18"
   y="40.5"
   x="171.5"
   style="fill:#e5d8b2;stroke:#000000" />
<rect
   id="AD07"
   height="18"
   width="18"
   y="59.5"
   x="143.5"
   style="fill:#e5d8b2;stroke:#000000" />
<rect
   id="AD06"
   height="18"
   width="18"
   y="59.5"
   x="124.5"
   style="fill:#e5d8b2;stroke:#000000" />
<rect
   id="AD05"
   height="18"
   width="18"
   y="59.5"
   x="105.5"
   style="fill:#e5d8b2;stroke:#000000" />
<rect
   id="AD04"
   height="18"
   width="18"
   y="59.5"
   x="86.5"
   style="fill:#e5d8b2;stroke:#000000" />
<rect
   id="AB10"
   height="18"
   width="18"
   y="97.5"
   x="216.5"
   style="fill:#e5d8b2;stroke:#000000" />
<rect
   id="AC11"
   height="18"
   width="18"
   y="78.5"
   x="224.5"
   style="fill:#e5d8b2;stroke:#000000" />
<rect
   id="AC10"
   height="18"
   width="18"
   y="78.5"
   x="205.5"
   style="fill:#e5d8b2;stroke:#000000" />
<rect
   id="RCTL"
   height="18"
   width="23"
   y="116.5"
   x="259.5"
   style="fill:#e5d8b2;stroke:#000000" />
<rect
   id="LCTL"
   height="18"
   width="27"
   y="116.5"
   x="0.5"
   style="fill:#e5d8b2;stroke:#000000" />
<rect
   id="TAB"
   height="18"
   width="28"
   y="59.5"
   x="0.5"
   style="fill:#e5d8b2;stroke:#000000" />
<rect
   id="LALT"
   height="18"
   width="23"
   y="116.5"
   x="52.5"
   style="fill:#e5d8b2;stroke:#000000" />
<rect
   id="TLDE"
   height="18"
   width="18"
   y="40.5"
   x="0.5"
   style="fill:#e5d8b2;stroke:#000000" />
<rect
   id="LSGT"
   height="18"
   width="18"
   y="97.5"
   x="26.5"
   style="fill:#e5d8b2;stroke:#000000" />
<rect
   id="LFSH"
   height="18"
   width="25"
   y="97.5"
   x="0.5"
   style="fill:#e5d8b2;stroke:#000000" />
<rect
   id="BKSP"
   height="18"
   width="35"
   y="40.5"
   x="247.5"
   style="fill:#e5d8b2;stroke:#000000;stroke-width:0.99999994" />
<rect
   id="CAPS"
   height="18"
   width="33"
   y="78.5"
   x="0.5"
   style="fill:#e5d8b2;stroke:#000000" />
<rect
   id="BKSL"
   height="18"
   width="18"
   y="78.5"
   x="243.5"
   style="fill:#e5d8b2;stroke:#000000;stroke-width:0.99999994" />
<rect
   id="MENU"
   height="18"
   width="22.999998"
   y="116.5"
   x="235.5"
   style="fill:#e5d8b2;stroke:#000000;stroke-width:1" />
<rect
   id="AD10"
   height="18"
   width="18"
   y="59.5"
   x="200.5"
   style="fill:#e5d8b2;stroke:#000000" />
<rect
   id="AD11"
   height="18"
   width="18"
   y="59.5"
   x="219.5"
   style="fill:#e5d8b2;stroke:#000000" />
<rect
   id="AD12"
   height="18"
   width="18"
   y="59.5"
   x="238.5"
   style="fill:#e5d8b2;stroke:#000000" />
<rect
   id="AB08"
   height="18"
   width="18"
   y="97.5"
   x="178.5"
   style="fill:#e5d8b2;stroke:#000000" />
<rect
   id="AE11"
   height="18"
   width="18"
   y="40.5"
   x="209.5"
   style="fill:#e5d8b2;stroke:#000000" />
<rect
   id="AE10"
   height="18"
   width="18"
   y="40.5"
   x="190.5"
   style="fill:#e5d8b2;stroke:#000000" />
<rect
   id="AE12"
   height="18"
   width="18"
   y="40.5"
   x="228.5"
   style="fill:#e5d8b2;stroke:#000000" />
<rect
   id="AC04"
   height="18"
   width="18"
   y="78.5"
   x="91.5"
   style="fill:#e5d8b2;stroke:#000000" />
<rect
   id="AC05"
   height="18"
   width="18"
   y="78.5"
   x="110.5"
   style="fill:#e5d8b2;stroke:#000000" />
<rect
   id="AC06"
   height="18"
   width="18"
   y="78.5"
   x="129.5"
   style="fill:#e5d8b2;stroke:#000000" />
<rect
   id="AC07"
   height="18"
   width="18"
   y="78.5"
   x="148.5"
   style="fill:#e5d8b2;stroke:#000000" />
<rect
   id="AB09"
   height="18"
   width="18"
   y="97.5"
   x="197.5"
   style="fill:#e5d8b2;stroke:#000000" />
<rect
   id="AC01"
   height="18"
   width="18"
   y="78.5"
   x="34.5"
   style="fill:#e5d8b2;stroke:#000000" />
<rect
   id="AC02"
   height="18"
   width="18"
   y="78.5"
   x="53.5"
   style="fill:#e5d8b2;stroke:#000000" />
<rect
   id="AC03"
   height="18"
   width="18"
   y="78.5"
   x="72.5"
   style="fill:#e5d8b2;stroke:#000000" />
<rect
   id="AB05"
   height="18"
   width="18"
   y="97.5"
   x="121.5"
   style="fill:#e5d8b2;stroke:#000000" />
<rect
   id="AB04"
   height="18"
   width="18"
   y="97.5"
   x="102.5"
   style="fill:#e5d8b2;stroke:#000000" />
<rect
   id="AE08"
   height="18"
   width="18"
   y="40.5"
   x="152.5"
   style="fill:#e5d8b2;stroke:#000000" />
<rect
   id="AB06"
   height="18"
   width="18"
   y="97.5"
   x="140.5"
   style="fill:#e5d8b2;stroke:#000000" />
<rect
   id="AC08"
   height="18"
   width="18"
   y="78.5"
   x="167.5"
   style="fill:#e5d8b2;stroke:#000000" />
<rect
   id="AC09"
   height="18"
   width="18"
   y="78.5"
   x="186.5"
   style="fill:#e5d8b2;stroke:#000000" />
<rect
   id="AB03"
   height="18"
   width="18"
   y="97.5"
   x="83.5"
   style="fill:#e5d8b2;stroke:#000000" />
<rect
   id="AB02"
   height="18"
   width="18"
   y="97.5"
   x="64.5"
   style="fill:#e5d8b2;stroke:#000000" />
<rect
   id="AD08"
   height="18"
   width="18"
   y="59.5"
   x="162.5"
   style="fill:#e5d8b2;stroke:#000000" />
<rect
   id="RWIN"
   height="18"
   width="20"
   y="116.5"
   x="214.5"
   style="fill:#e5d8b2;stroke:#000000;stroke-width:0.99999994" />
<rect
   id="SPCE"
   height="18"
   width="113"
   y="116.5"
   x="76.5"
   style="fill:#e5d8b2;stroke:#000000;stroke-width:1" />
<rect
   id="RTSH"
   height="18"
   width="47"
   y="97.5"
   x="235.5"
   style="fill:#e5d8b2;stroke:#000000;stroke-width:1" />
<rect
   id="LWIN"
   height="18"
   width="23"
   y="116.5"
   x="28.5"
   style="fill:#e5d8b2;stroke:#000000" />
<rect
   id="AB07"
   height="18"
   width="18"
   y="97.5"
   x="159.5"
   style="fill:#e5d8b2;stroke:#000000" />
<rect
   id="INS"
   height="18"
   width="18"
   y="40.5"
   x="285.5"
   style="fill:#e5d8b2;stroke:#000000" />
<rect
   id="HOME"
   height="18"
   width="18"
   y="40.5"
   x="304.5"
   style="fill:#e5d8b2;stroke:#000000" />
<rect
   id="DELE"
   height="18"
   width="18"
   y="59.5"
   x="285.5"
   style="fill:#e5d8b2;stroke:#000000" />
<rect
   id="END"
   height="18"
   width="18"
   y="59.5"
   x="304.5"
   style="fill:#e5d8b2;stroke:#000000" />
<rect
   id="PGUP"
   height="18"
   width="18"
   y="40.5"
   x="323.5"
   style="fill:#e5d8b2;stroke:#000000" />
<rect
   id="PGDN"
   height="18"
   width="18"
   y="59.5"
   x="323.5"
   style="fill:#e5d8b2;stroke:#000000" />
<rect
   id="UP"
   height="18"
   width="18"
   y="97.5"
   x="304.5"
   style="fill:#e5d8b2;stroke:#000000" />
<rect
   id="DOWN"
   height="18"
   width="18"
   y="116.5"
   x="304.5"
   style="fill:#e5d8b2;stroke:#000000" />
<rect
   id="LEFT"
   height="18"
   width="18"
   y="116.5"
   x="285.5"
   style="fill:#e5d8b2;stroke:#000000" />
<rect
   id="RGHT"
   height="18"
   width="18"
   y="116.5"
   x="323.5"
   style="fill:#e5d8b2;stroke:#000000" />
<rect
   id="F10"
   style="fill:#e5d8b2;stroke:#000000"
   height="18"
   width="18"
   y="19.5"
   x="219" />
<rect
   id="F3"
   style="fill:#e5d8b2;stroke:#000000"
   height="18"
   width="18"
   y="19.5"
   x="67" />
<rect
   id="F2"
   style="fill:#e5d8b2;stroke:#000000"
   height="18"
   width="18"
   y="19.5"
   x="48" />
<rect
   id="ESC"
   height="18"
   width="18"
   y="19.5"
   x="0.5"
   style="fill:#e5d8b2;stroke:#000000" />
<rect
   id="F12"
   style="fill:#e5d8b2;stroke:#000000"
   height="18"
   width="18"
   y="19.5"
   x="257" />
<rect
   id="F11"
   style="fill:#e5d8b2;stroke:#000000"
   height="18"
   width="18"
   y="19.5"
   x="238" />
<rect
   id="F9"
   style="fill:#e5d8b2;stroke:#000000"
   height="18"
   width="18"
   y="19.5"
   x="200" />
<rect
   id="F6"
   style="fill:#e5d8b2;stroke:#000000"
   height="18"
   width="18"
   y="19.5"
   x="133.5" />
<rect
   id="F7"
   style="fill:#e5d8b2;stroke:#000000"
   height="18"
   width="18"
   y="19.5"
   x="152.5" />
<rect
   id="F1"
   style="fill:#e5d8b2;stroke:#000000"
   height="18"
   width="18"
   y="19.5"
   x="29" />
<rect
   id="F4"
   style="fill:#e5d8b2;stroke:#000000"
   height="18"
   width="18"
   y="19.5"
   x="86" />
<rect
   id="F8"
   style="fill:#e5d8b2;stroke:#000000"
   height="18"
   width="18"
   y="19.5"
   x="171.5" />
<rect
   id="F5"
   style="fill:#e5d8b2;stroke:#000000"
   height="18"
   width="18"
   y="19.5"
   x="114.5" />
<rect
   id="Prnt"
   height="18"
   width="18"
   y="19.5"
   x="285.5"
   style="fill:#e5d8b2;stroke:#000000" />
<rect
   id="Scroll"
   height="18"
   width="18"
   y="19.5"
   x="304.5"
   style="fill:#e5d8b2;stroke:#000000" />
<rect
   id="Pause"
   height="18"
   width="18"
   y="19.5"
   x="323.5"
   style="fill:#e5d8b2;stroke:#000000" />
<rect
   id="hide"
   height="18"
   width="23"
   y="19.5"
   x="344.5"
   style="fill:#e5d8b2;stroke:#000000" />
<rect
   id="move"
   height="18"
   width="23"
   y="40.5"
   x="344.5"
   style="fill:#e5d8b2;stroke:#000000" />
<rect
   id="showclick"
   height="18"
   width="23"
   y="59.5"
   x="344.5"
   style="fill:#e5d8b2;stroke:#000000" />
<rect
   id="layer0"
   style="fill:#e5d8b2;stroke:#000000;stroke-width:1"
   height="27.5"
   width="23"
   y="78.5"
   x="344.5" />
<rect
   id="layer1"
   style="fill:#e5d8b2;stroke:#000000;stroke-width:1"
   height="27.5"
   width="23"
   y="107.0"
   x="344.5" />
<rect
   id="correction"
   height="16"
   width="50"
   y="0.5"
   x="28.5"
   style="color:#000000;fill:#2b2b63;fill-opacity:1;fill-rule:nonzero;stroke:#7f7f7f;stroke-width:0.99999994;stroke-linecap:butt;stroke-linejoin:miter;stroke-miterlimit:4;stroke-opacity:1;stroke-dasharray:none;stroke-dashoffset:0;marker:none;visibility:visible;display:inline;overflow:visible;enable-background:accumulate"
   inkscape:label="#correction" />
<rect
   id="prediction"
   height="16"
   width="50"
   y="0.5"
   x="110.5"
   style="color:#000000;fill:#2b2b63;fill-opacity:1;fill-rule:nonzero;stroke:#7f7f7f;stroke-width:0.99999994;stroke-linecap:butt;stroke-linejoin:miter;stroke-miterlimit:4;stroke-opacity:1;stroke-dasharray:none;stroke-dashoffset:0;marker:none;visibility:visible;display:inline;overflow:visible;enable-background:accumulate" />
<rect
   id="expand-corrections"
   height="15.682057"
   width="17.682056"
   y="0.6589725"
   x="85.658958"
   style="fill:#2b2b63;stroke:#7f7f7f;stroke-width:1.31794274" />
<rect
   style="fill:#2b2b63;stroke:#7f7f7f;stroke-width:1.01971734"
   x="345.50986"
   y="0.50985956"
   width="17.980282"
   height="15.980283"
   id="hide.wordlist"
   inkscape:label="" />
<rect
   id="move.wordlist"
   height="18"
   width="23"
   y="19.5"
   x="368.5"
   style="fill:#e5d8b2;stroke:#000000"
   inkscape:label="" />
<rect
   id="showclick.wordlist"
   height="18"
   width="23"
   y="40.5"
   x="368.5"
   style="fill:#e5d8b2;stroke:#000000"
   inkscape:label="" />
<rect
   x="368.5"
   y="59.324417"
   width="23"
   height="36.910427"
   style="fill:#e5d8b2;stroke:#000000;stroke-width:1"
   id="layer0.wordlist"
   inkscape:label="" />
<rect
   x="368.5"
   y="97.589569"
   width="22.999626"
   height="36.910427"
   style="fill:#e5d8b2;stroke:#000000;stroke-width:1"
   id="layer1.wordlist"
   inkscape:label="" />
<rect
   inkscape:label=""
   id="language.wordlist"
   height="15.980283"
   width="17.980282"
   y="0.50985956"
   x="325.5"
   style="fill:#2b2b63;stroke:#7f7f7f;stroke-width:1" />



     id=&quot;g4172&quot;&gt;
  <rect
   id="doubleclick"
   style="fill:#eca76b;fill-opacity:0.90196073;stroke:#000000"
   height="18"
   width="18"
   y="78.5"
   x="285.5" />
<rect
   id="dragclick"
   style="fill:#eca76b;fill-opacity:0.90196073;stroke:#000000"
   height="18"
   width="18"
   y="78.5"
   x="304.5" />
<rect
   id="hoverclick"
   style="fill:#eca76b;fill-opacity:0.90196073;stroke:#000000"
   height="18"
   width="18"
   y="78.5"
   x="323.5" />
<rect
   id="secondaryclick"
   style="fill:#eca76b;fill-opacity:0.90196073;stroke:#000000;stroke-width:0.99999994000000003"
   height="18"
   width="17"
   y="19.5"
   x="247.5" />
<rect
   id="middleclick"
   style="fill:#eca76b;fill-opacity:0.90196073;stroke:#000000;stroke-width:0.99999994000000003"
   height="18"
   width="17"
   y="19.5"
   x="265.5" />
<g
   id="RTRN">
  <path
     sodipodi:nodetypes="ccccccc"
     inkscape:connector-curvature="0"
     id="RTRN_100pct"
     d="m 257.5,59.5 25,0 0,37 -20,0 0,-19 -5,0 z"
     style="fill:#e5d8b2;fill-opacity:1;stroke:#000000;stroke-width:1" />
  <path
     inkscape:label="#RTRN_50pct"
     sodipodi:nodetypes="ccccccc"
     inkscape:connector-curvature="0"
     id="RTRN_50pct"
     d="m 262.25,64.25 15.5,0 0,27.5 -10.5,0 0,-19 -5,0 z"
     style="fill:#e5d8b2;fill-opacity:1;stroke:#000000;stroke-width:1;enable-background:new;opacity:0.2">
    <desc
       id="desc4182">Scaled-down key at 50% key_size.

Group this with the full size return key to enable interpolation between these two paths when key_size is applied.</desc>
  </path>
</g>
<rect
   style="fill:#2b2b63;stroke:#7f7f7f;stroke-width:1"
   x="305.5"
   y="0.50985956"
   width="17.980282"
   height="15.980283"
   id="pause-learning.wordlist"
   inkscape:label="" />
</svg>
