<?xml version="1.0" encoding="UTF-8"?>
<svg width="187" height="72" id="Layer_1" data-name="Layer 1" xmlns="http://www.w3.org/2000/svg" viewBox="0 0 1039.44678 400">
  <defs>
    <style>
      .cls-1 {
        fill: none;
      }

      .cls-2 {
        fill: #e95420;
      }

      .cls-3 {
        fill: #fff;
      }
    </style>
  </defs>
  <rect class="cls-2" width="232.955" height="400"/>
  <path class="cls-3" d="M29.3844,264.63989c1.985-13.177,14.274-22.256,27.442-20.28,13.186,1.97701,22.264,14.265,20.28,27.442-1.968,13.17799-14.256,22.255-27.442,20.279-13.169-1.97601-22.248-14.264-20.28-27.441"/>
  <path class="cls-3" d="M130.1423,210.2558c2.79601-13.03101,15.62-21.323,28.64999-18.536,13.03,2.79599,21.33101,15.62,18.53601,28.64999-2.79501,13.03101-15.619,21.332-28.65001,18.536-13.03-2.79599-21.33199-15.618-18.536-28.64999"/>
  <path class="cls-3" d="M107.6711,330.319c-17.379-3.727-31.911-14.827-40.075-30.566-6.437,2.925-13.669,3.82301-20.624,2.537,9.872,24.266,30.824,41.888,56.54,47.393,5.661,1.218,11.408,1.805,17.138,1.769-4.436-5.825-6.903-12.848-7.05901-20.175-1.985-.216-3.969-.545-5.92-.958"/>
  <path class="cls-3" d="M124.7058,325.391c2.796-13.021,15.62-21.322,28.65-18.536,13.03,2.79601,21.33301,15.62,18.537,28.651-2.79601,13.03-15.62001,21.331-28.651,18.535-13.03-2.787-21.332-15.619-18.536-28.65"/>
  <path class="cls-3" d="M181.8842,321.5859c7.491-9.45,12.772-20.633,15.327-32.526,4.435-20.717.29201-42.456-11.373-60.09499-2.77899,6.549-7.508,12.09-13.56599,15.897,6.507,12.26999,8.492,26.43199,5.57401,40.049-1.43201,6.67-3.95201,12.953-7.507,18.7,5.661,4.659,9.68199,10.924,11.545,17.975"/>
  <path class="cls-3" d="M51.3896,233.6158c.621-.033,1.226-.05099,1.847-.05099,2.434,0,4.867.258,7.284.776,3.917.847,7.628,2.34,11.01,4.43599,10.85699-15.62,28.392-24.99899,47.376-25.336.104-1.81999.34599-3.64099.72499-5.437,1.10501-5.16901,3.36601-10.00099,6.59401-14.13499-30.342-2.39801-59.821,13.25499-74.836,39.74699"/>
  <rect class="cls-1" width="232.95799" height="400"/>
  <g>
    <path class="cls-3" d="M352.33496,356.3877c-14.44629,0-26.01953-2.7959-34.71729-8.3877-8.70117-5.59277-15.02832-13.20117-18.98926-22.83398-3.96094-9.62988-5.94141-20.4248-5.94141-32.3877v-101.35449h18.17383v99.25781c0,17.24219,3.84473,29.78711,11.53369,37.62988,7.68896,7.84473,17.66796,11.76562,29.94043,11.76562,12.42529,0,22.48438-3.96094,30.17334-11.88281s11.53369-20.42383,11.53369-37.5127v-99.25781h18.17383v101.35449c0,11.96289-1.98047,22.75781-5.94141,32.3877-3.96094,9.63281-10.29199,17.24121-18.98975,22.83398-8.70068,5.5918-20.35107,8.3877-34.94971,8.3877Z"/>
    <path class="cls-3" d="M496.0957,355.68848c-6.8374,0-13.04834-.34961-18.64014-1.04883-5.59229-.69824-10.5249-1.55371-14.79541-2.5625-4.27441-1.00879-7.9624-1.98047-11.06787-2.91211v-174.05127l17.4751-3.0293v66.87158c2.7959-2.01758,7.02637-4.07812,12.69873-6.1748,5.66846-2.09766,12.23242-3.14551,19.68848-3.14551,11.6499,0,21.51221,2.67969,29.59082,8.03809,8.0752,5.35938,14.24951,12.7793,18.52344,22.25195,4.27051,9.47656,6.40771,20.35059,6.40771,32.62012,0,13.04785-2.48682,24.27148-7.45605,33.66797-4.97314,9.40039-11.96289,16.66016-20.97021,21.78613-9.01025,5.12598-19.49512,7.68848-31.45459,7.68848ZM495.8623,340.07715c8.38818,0,15.72754-1.86328,22.01855-5.5918,6.29102-3.72754,11.14404-9.12305,14.5625-16.19336,3.41504-7.06641,5.12598-15.64746,5.12598-25.74609,0-6.52441-.6626-12.65918-1.98047-18.40723-1.32129-5.74512-3.49463-10.79492-6.52393-15.14551-3.02881-4.34668-6.98975-7.72461-11.88281-10.13477-4.89307-2.40723-10.83447-3.6123-17.82471-3.6123-6.68066,0-12.73828,1.12891-18.17383,3.37891-5.43896,2.25391-9.47656,4.4668-12.11621,6.64062v81.7832c2.17334.62207,5.47559,1.28125,9.90283,1.98047,4.42676.69922,10.05518,1.04785,16.89209,1.04785Z"/>
    <path class="cls-3" d="M634.96191,355.22266c-12.11621,0-21.70947-2.29395-28.77588-6.87402-7.06982-4.5791-12.11572-11.06738-15.14502-19.45508-3.02881-8.3877-4.54346-18.09375-4.54346-29.125v-67.57031h17.4751v62.91016c0,10.875,1.08496,19.57227,3.26221,26.0957,2.17334,6.52441,5.7085,11.22461,10.60156,14.09668,4.89258,2.87598,11.37695,4.31055,19.45508,4.31055,6.52441,0,12.30908-.34961,17.35889-1.04785,5.0459-.69922,8.34766-1.28223,9.90234-1.74805v-104.61719h17.24219v116.5c-4.66016,1.24512-10.91455,2.64355-18.75684,4.19434-7.84521,1.55078-17.20557,2.33008-28.07617,2.33008Z"/>
    <path class="cls-3" d="M720.93799,352.89258v-116.5c4.81299-1.24121,11.104-2.63965,18.87305-4.19434,7.76562-1.55078,17.08545-2.33008,27.95996-2.33008,12.58203,0,22.36816,2.33008,29.3584,6.99023,6.98975,4.66016,11.91943,11.14746,14.79541,19.45605,2.87256,8.31152,4.31055,17.98047,4.31055,29.00781v67.57031h-17.4751v-62.67676c0-11.02734-1.01221-19.80566-3.02881-26.3291-2.021-6.52441-5.43945-11.26074-10.25244-14.21289-4.81641-2.94922-11.49707-4.42773-20.0376-4.42773-6.52441,0-12.27295.38965-17.24219,1.16504-4.97314.7793-8.23486,1.39844-9.78613,1.86426v104.61719h-17.4751Z"/>
    <path class="cls-3" d="M893.3584,355.45605c-10.25244,0-18.33057-1.78809-24.23242-5.35938-5.90479-3.57129-10.05908-8.93066-12.46533-16.07715-2.41016-7.14258-3.61133-16.07715-3.61133-26.79492v-109.97607l17.4751-3.02881v37.97852h47.29883v14.67969h-47.29883v61.74512c0,8.54395.96826,15.06836,2.91211,19.57129,1.94043,4.50781,4.73682,7.57227,8.38818,9.2041,3.64795,1.63086,7.9585,2.44629,12.93164,2.44629,5.90137,0,10.83447-.69922,14.79541-2.09668,3.96094-1.39844,7.10645-2.63965,9.43652-3.72852l3.72803,14.21289c-2.33008,1.39844-6.1748,2.95312-11.53369,4.66016s-11.30029,2.56348-17.82422,2.56348Z"/>
    <path class="cls-3" d="M992.61377,355.22266c-12.11621,0-21.70947-2.29395-28.77588-6.87402-7.06982-4.5791-12.11572-11.06738-15.14502-19.45508-3.02881-8.3877-4.54346-18.09375-4.54346-29.125v-67.57031h17.4751v62.91016c0,10.875,1.08496,19.57227,3.26221,26.0957,2.17334,6.52441,5.7085,11.22461,10.60156,14.09668,4.89258,2.87598,11.37695,4.31055,19.45508,4.31055,6.52441,0,12.30908-.34961,17.35889-1.04785,5.0459-.69922,8.34766-1.28223,9.90234-1.74805v-104.61719h17.24219v116.5c-4.66016,1.24512-10.91455,2.64355-18.75684,4.19434-7.84521,1.55078-17.20557,2.33008-28.07617,2.33008Z"/>
  </g>
</svg>