<svg id="Layer_1" data-name="Layer 1" xmlns="http://www.w3.org/2000/svg" viewBox="0 0 1444.23 360.27"><defs><style>.cls-1{fill:#e95420;}.cls-2{fill:#fff;}.cls-3{fill:#111;}</style></defs><rect class="cls-1" width="233.93" height="360.27"/><circle class="cls-2" cx="52.26" cy="238.51" r="24.44"/><circle class="cls-2" cx="154.06" cy="184.91" r="24.44"/><path class="cls-2" d="M107.39,301.42a59.52,59.52,0,0,1-40.6-31A35.22,35.22,0,0,1,45.89,273a80.08,80.08,0,0,0,74.65,49.8,35,35,0,0,1-7.16-20.44A60.26,60.26,0,0,1,107.39,301.42Z"/><circle class="cls-2" cx="148.55" cy="301.55" r="24.44"/><path class="cls-2" d="M182.56,292.58a79.94,79.94,0,0,0,4-93.83,35.16,35.16,0,0,1-13.74,16.09,60,60,0,0,1-2,59.53A35,35,0,0,1,182.56,292.58Z"/><path class="cls-2" d="M50.37,203.46c.62,0,1.24-.05,1.87-.05a35.36,35.36,0,0,1,7.37.78,35,35,0,0,1,11.16,4.5,59.63,59.63,0,0,1,48-25.68,36.52,36.52,0,0,1,.74-5.5,35.3,35.3,0,0,1,6.68-14.32A80.38,80.38,0,0,0,50.37,203.46Z"/><path class="cls-3" d="M347.78,331.73q-16.27,0-27.71-5a47.72,47.72,0,0,1-18.52-13.68,54.81,54.81,0,0,1-10.26-20.41,95.22,95.22,0,0,1-3.19-25.12V164.73h16V265.45a75.46,75.46,0,0,0,3.19,23.23,44.78,44.78,0,0,0,8.84,16.16,34.55,34.55,0,0,0,13.68,9.44,54.06,54.06,0,0,0,35.86,0,34.55,34.55,0,0,0,13.68-9.44,44.78,44.78,0,0,0,8.84-16.16,75.46,75.46,0,0,0,3.19-23.23V164.73h16V267.57a95.22,95.22,0,0,1-3.19,25.12A54.81,54.81,0,0,1,394,313.1a47.76,47.76,0,0,1-18.51,13.68Q364.06,331.73,347.78,331.73Z"/><path class="cls-3" d="M460.55,213.56q4-3.06,12.85-6.49a58,58,0,0,1,20.88-3.42,55.7,55.7,0,0,1,23.47,4.72,48.76,48.76,0,0,1,17.33,13.21,58.28,58.28,0,0,1,10.74,20.17,85.49,85.49,0,0,1,3.65,25.59A76.4,76.4,0,0,1,545.11,294,57.25,57.25,0,0,1,532.84,314,52.66,52.66,0,0,1,514,326.66,65.48,65.48,0,0,1,489.56,331q-16.28,0-26.89-2.12a137.63,137.63,0,0,1-17.45-4.48V148l15.33-2.83Zm0,100.25A68.84,68.84,0,0,0,471,316.05a127.35,127.35,0,0,0,18.28,1.06q19.81,0,31.85-12.86t12-36.91a84.07,84.07,0,0,0-2.13-19.23,44.87,44.87,0,0,0-6.84-15.8,34.25,34.25,0,0,0-12.38-10.73q-7.67-4-19-4a49.31,49.31,0,0,0-10.38,1.06,61.57,61.57,0,0,0-9.19,2.71,51,51,0,0,0-12.74,7.08Z"/><path class="cls-3" d="M673.56,324q-6.84,1.89-18.4,4.24a144.38,144.38,0,0,1-28.3,2.36q-13.68,0-22.88-4a37.07,37.07,0,0,1-14.86-11.32A45.88,45.88,0,0,1,581,297.53a98.64,98.64,0,0,1-2.47-22.88v-68.4h15.33V269.7a108.25,108.25,0,0,0,1.88,21.93q1.89,9,6.14,14.51a23.86,23.86,0,0,0,11,8,47.64,47.64,0,0,0,16.39,2.48,132.49,132.49,0,0,0,18.87-1.18c5.34-.79,8.73-1.5,10.14-2.13V206.25h15.33Z"/><path class="cls-3" d="M710.26,210.49q6.84-1.87,18.4-4.24a144.38,144.38,0,0,1,28.3-2.36q13.92,0,23.24,4a35.73,35.73,0,0,1,14.86,11.44,46.84,46.84,0,0,1,7.9,17.81A103.44,103.44,0,0,1,805.32,260v68.16H790V265A115.58,115.58,0,0,0,788.22,243a36.61,36.61,0,0,0-5.9-14.62,23,23,0,0,0-10.85-8.14q-6.72-2.47-16.87-2.47A128.49,128.49,0,0,0,735.85,219q-7.9,1.17-10.26,2.12V328.19H710.26Z"/><path class="cls-3" d="M855.39,206.25H904v13H855.39v64.87A65.79,65.79,0,0,0,857.16,301a23.36,23.36,0,0,0,5.07,10,16,16,0,0,0,8,4.72,42.53,42.53,0,0,0,10.38,1.18q9.66,0,15.56-2.24a67,67,0,0,0,9.2-4.13l3.78,12.74q-3.31,2.13-11.56,4.83a57.11,57.11,0,0,1-17.93,2.72q-11.32,0-19-3a27.48,27.48,0,0,1-12.26-9,36.72,36.72,0,0,1-6.49-15,104.2,104.2,0,0,1-1.88-21.23V170.4l15.33-2.83Z"/><path class="cls-3" d="M1023.33,324q-6.86,1.89-18.4,4.24a144.49,144.49,0,0,1-28.31,2.36q-13.68,0-22.88-4a37.14,37.14,0,0,1-14.86-11.32,45.87,45.87,0,0,1-8.13-17.69,98.62,98.62,0,0,1-2.48-22.88v-68.4H943.6V269.7a108.17,108.17,0,0,0,1.89,21.93q1.89,9,6.13,14.51a23.91,23.91,0,0,0,11,8A47.64,47.64,0,0,0,979,316.64a132.49,132.49,0,0,0,18.87-1.18q8-1.18,10.14-2.13V206.25h15.34Z"/><path class="cls-3" d="M1156.68,163.32q34.68,0,51.66,13.21t17,37.5q0,13.92-5,23.71a40.35,40.35,0,0,1-14.15,15.8q-9.21,6-22.53,8.73a151.33,151.33,0,0,1-30.07,2.71h-22.17v63.21h-16V167.8a115.14,115.14,0,0,1,19.93-3.42Q1146.77,163.32,1156.68,163.32Zm.71,13.92q-9,0-15.21.59t-10.73,1.06v72.17h20.28a163.68,163.68,0,0,0,23.47-1.53,52.38,52.38,0,0,0,17.93-5.66,28.63,28.63,0,0,0,11.44-11.44q4-7.31,4-18.63,0-10.85-4.37-17.93a32.14,32.14,0,0,0-11.56-11.2,50.62,50.62,0,0,0-16.39-5.78A106.64,106.64,0,0,0,1157.39,177.24Z"/><path class="cls-3" d="M1292.85,203.89a82.18,82.18,0,0,1,14.27,1.18,43.81,43.81,0,0,1,9.32,2.36l-3.07,13.21a34.1,34.1,0,0,0-7.66-2,87.42,87.42,0,0,0-15.22-1.06,71.62,71.62,0,0,0-15.92,1.42,44.62,44.62,0,0,0-7.9,2.35V328.19h-15.33V211.91a113,113,0,0,1,16.27-5.31Q1278,203.9,1292.85,203.89Z"/><path class="cls-3" d="M1438.5,267.34a78.87,78.87,0,0,1-4.13,26.18,58.25,58.25,0,0,1-11.56,20.05,52.56,52.56,0,0,1-17.57,12.85,56.86,56.86,0,0,1-44.81,0,52.6,52.6,0,0,1-17.58-12.85,58.39,58.39,0,0,1-11.55-20.05,85,85,0,0,1,0-52.36A59.72,59.72,0,0,1,1342.85,221a51.86,51.86,0,0,1,17.58-13,56.86,56.86,0,0,1,44.81,0,51.82,51.82,0,0,1,17.57,13,59.57,59.57,0,0,1,11.56,20.17A78.87,78.87,0,0,1,1438.5,267.34Zm-16.28,0q0-22.87-10.61-36.44t-28.78-13.57q-18.16,0-28.77,13.57t-10.62,36.44q0,22.88,10.62,36.32t28.77,13.45q18.17,0,28.78-13.45T1422.22,267.34Z"/></svg>