<svg xmlns="http://www.w3.org/2000/svg" width="16" height="16"><g fill="#2e3436"><path d="M8 2.5C8 3.879 6.879 5 5.5 5A2.502 2.502 0 013 2.5C3 1.121 4.121 0 5.5 0S8 1.121 8 2.5zm0 0M12.5 5C13.879 5 15 6.121 15 7.5S13.879 10 12.5 10A2.502 2.502 0 0110 7.5C10 6.121 11.121 5 12.5 5zm0 0"/><path d="M10 11c-1.352-.02-1.352 2.02 0 2h1v2a.998.998 0 001.5.863A1 1 0 0014 15v-.137c.867.5 1.848-.437 1.387-1.324l-.95-1.812C14.087 11.117 13.845 11 13 11zm0 0" fill-rule="evenodd"/><path d="M4 6a1 1 0 00-.707.293l-3 3a.992.992 0 00-.273.973.99.99 0 00.714.714.992.992 0 00.973-.273L3.25 9.16 3 10.93V15c-.004.36.184.695.496.879.313.18.695.18 1.008 0 .312-.184.5-.52.496-.879v-2.5s0-.5.5-.5.5.5.5.5V15c-.004.36.184.695.496.879.313.18.695.18 1.008 0 .312-.184.5-.52.496-.879v-3.285l.086.191c.223.504.816.73 1.32.508.504-.223.73-.816.508-1.32l-2-4.5C7.754 6.234 7.394 6 7 6zm0 0" fill-rule="evenodd"/></g></svg>